<?xml version="1.0" encoding="UTF-8"?>
<svg version="1.1" xmlns="http://www.w3.org/2000/svg" width="150" height="100">
<path d="M0 0 C0.33 2.31 0.66 4.62 1 7 C1.33 6.01 1.66 5.02 2 4 C8.27 4 14.54 4 21 4 C20.505 2.515 20.505 2.515 20 1 C20.99 0.34 21.98 -0.32 23 -1 C24.32 -0.67 25.64 -0.34 27 0 C27.495 6.435 27.495 6.435 28 13 C22.29776496 13.97619785 16.7787685 14.15087508 11 14.125 C10.13632812 14.12886719 9.27265625 14.13273437 8.3828125 14.13671875 C3.49705818 14.12929359 -1.20878056 14.00666579 -6 13 C-6.33 12.34 -6.66 11.68 -7 11 C-6.34 11 -5.68 11 -5 11 C-5.33 9.68 -5.66 8.36 -6 7 C-8.31 7.33 -10.62 7.66 -13 8 C-12.67 9.65 -12.34 11.3 -12 13 C-14.64 13 -17.28 13 -20 13 C-20 12.34 -20 11.68 -20 11 C-19.34 11 -18.68 11 -18 11 C-18.144375 9.741875 -18.28875 8.48375 -18.4375 7.1875 C-18.51871094 6.47980469 -18.59992187 5.77210937 -18.68359375 5.04296875 C-18.97170735 2.80603607 -18.97170735 2.80603607 -20 0 C-18.51886719 0.01740234 -18.51886719 0.01740234 -17.0078125 0.03515625 C-15.72648437 0.04417969 -14.44515625 0.05320313 -13.125 0.0625 C-11.21074219 0.07990234 -11.21074219 0.07990234 -9.2578125 0.09765625 C-0.54505814 -0.16351744 -0.54505814 -0.16351744 0 0 Z M-13 2 C-13 3.32 -13 4.64 -13 6 C-12.34 6 -11.68 6 -11 6 C-11 4.68 -11 3.36 -11 2 C-11.66 2 -12.32 2 -13 2 Z M20 6 C20 7.65 20 9.3 20 11 C20.66 11 21.32 11 22 11 C22 9.35 22 7.7 22 6 C21.34 6 20.68 6 20 6 Z M7 7 C7 8.98 7 10.96 7 13 C7.33 13 7.66 13 8 13 C8 11.02 8 9.04 8 7 C7.67 7 7.34 7 7 7 Z M13 7 C13 8.65 13 10.3 13 12 C13.66 12 14.32 12 15 12 C15 10.35 15 8.7 15 7 C14.34 7 13.68 7 13 7 Z " fill="#162568" transform="translate(42,49)"/>
<path d="M0 0 C0.7940625 -0.01417969 1.588125 -0.02835938 2.40625 -0.04296875 C4.5 0.1875 4.5 0.1875 6.5 2.1875 C6.76991906 4.87589385 6.58737357 7.47891936 6.5 10.1875 C7.16 10.1875 7.82 10.1875 8.5 10.1875 C8.17 7.5475 7.84 4.9075 7.5 2.1875 C10.63411302 0.09809132 11.47450472 -0.08614412 15.0625 -0.0625 C16.24005859 -0.07023437 16.24005859 -0.07023437 17.44140625 -0.078125 C19.5 0.1875 19.5 0.1875 21.5 2.1875 C21.9140625 4.5703125 21.9140625 4.5703125 22.125 7.3125 C22.19976562 8.22257812 22.27453125 9.13265625 22.3515625 10.0703125 C22.40054688 10.76898438 22.44953125 11.46765625 22.5 12.1875 C20.19 12.1875 17.88 12.1875 15.5 12.1875 C15.83 9.5475 16.16 6.9075 16.5 4.1875 C15.84 4.1875 15.18 4.1875 14.5 4.1875 C14.5 6.8275 14.5 9.4675 14.5 12.1875 C10.21 12.1875 5.92 12.1875 1.5 12.1875 C0.06911472 9.32572943 0.90008303 7.25374227 1.5 4.1875 C0.84 4.1875 0.18 4.1875 -0.5 4.1875 C-0.5 6.8275 -0.5 9.4675 -0.5 12.1875 C-2.48 12.1875 -4.46 12.1875 -6.5 12.1875 C-6.5 8.5575 -6.5 4.9275 -6.5 1.1875 C-4.14653604 0.01076802 -2.6193967 0.02126134 0 0 Z " fill="#0D2F2C" transform="translate(77.5,33.8125)"/>
<path d="M0 0 C0 0.66 0 1.32 0 2 C1.32 2 2.64 2 4 2 C4 2.66 4 3.32 4 4 C2.68 4 1.36 4 0 4 C0.27617533 5.94074861 0.27617533 5.94074861 1 8 C1.99 8.66 2.98 9.32 4 10 C2 12 2 12 -0.5 12.25 C-3 12 -3 12 -5 10 C-5.125 6.875 -5.125 6.875 -5 4 C-5.33 4.33 -5.66 4.66 -6 5 C-5.8981629 6.91424457 -5.8981629 6.91424457 -5.5625 9.0625 C-5.376875 10.361875 -5.19125 11.66125 -5 13 C-6.98 13 -8.96 13 -11 13 C-11 10.69 -11 8.38 -11 6 C-11.66 6 -12.32 6 -13 6 C-12.67 8.31 -12.34 10.62 -12 13 C-13.98 13 -15.96 13 -18 13 C-18.33 11.68 -18.66 10.36 -19 9 C-19 9.66 -19 10.32 -19 11 C-25.41194487 12.33078101 -25.41194487 12.33078101 -28 10.875 C-29 9 -29 9 -28.75 6.375 C-28 4 -28 4 -27 3 C-24.64583287 2.97921921 -22.29115465 3.00916595 -19.9375 3.0625 C-12.93896124 3.15442259 -6.44589886 0 0 0 Z M-24 4 C-24.33 4.66 -24.66 5.32 -25 6 C-24.01 5.67 -23.02 5.34 -22 5 C-22.66 4.67 -23.32 4.34 -24 4 Z " fill="#092632" transform="translate(99,50)"/>
<path d="M0 0 C2.93848107 1.69942155 5.87181487 3.40644786 8.796875 5.12890625 C10.70908303 6.24591558 12.63274008 7.34417226 14.578125 8.40234375 C16.53429848 9.50357091 18.31642785 10.51477974 20 12 C20.5 14.8125 20.5 14.8125 20 17 C12.36957862 20.08151633 4.2915676 23 -4 23 C-4 21.35 -4 19.7 -4 18 C-2.783125 17.54625 -1.56625 17.0925 -0.3125 16.625 C2.8101503 15.46062192 5.9086716 14.24519358 9 13 C8.36191406 12.57847656 7.72382813 12.15695313 7.06640625 11.72265625 C6.24011719 11.17480469 5.41382813 10.62695312 4.5625 10.0625 C3.73878906 9.51722656 2.91507813 8.97195312 2.06640625 8.41015625 C0 7 0 7 -1 6 C-1.125 3.5 -1.125 3.5 -1 1 C-0.67 0.67 -0.34 0.34 0 0 Z " fill="#353F21" transform="translate(129,45)"/>
<path d="M0 0 C0 1.65 0 3.3 0 5 C-1.953125 5.71614583 -3.90625 6.43229167 -5.859375 7.1484375 C-7.95634928 7.9826353 -9.98144861 8.99072431 -12 10 C-8.7 12.31 -5.4 14.62 -2 17 C-2.33 18.65 -2.66 20.3 -3 22 C-7.66177086 21.03011874 -11.1851069 18.67432025 -15.1875 16.1875 C-15.92419922 15.74857422 -16.66089844 15.30964844 -17.41992188 14.85742188 C-18.12052734 14.42365234 -18.82113281 13.98988281 -19.54296875 13.54296875 C-20.18258545 13.15133545 -20.82220215 12.75970215 -21.48120117 12.35620117 C-23.38263324 10.65833023 -23.71754884 9.5078051 -24 7 C-23 5 -23 5 -21.20581055 4.31396484 C-20.44051025 4.11496582 -19.67520996 3.9159668 -18.88671875 3.7109375 C-18.05076172 3.49179687 -17.21480469 3.27265625 -16.35351562 3.046875 C-15.47373047 2.82515625 -14.59394531 2.6034375 -13.6875 2.375 C-12.38522461 2.03082031 -12.38522461 2.03082031 -11.05664062 1.6796875 C-7.17766478 0.67942972 -4.04628633 0 0 0 Z " fill="#121A11" transform="translate(24,29)"/>
<path d="M0 0 C0.598125 0.20625 1.19625 0.4125 1.8125 0.625 C1.8125 1.945 1.8125 3.265 1.8125 4.625 C2.410625 4.41875 3.00875 4.2125 3.625 4 C5.8125 3.625 5.8125 3.625 8.8125 5.625 C9.32421875 8.0078125 9.32421875 8.0078125 9.5 10.75 C9.59861328 12.11511719 9.59861328 12.11511719 9.69921875 13.5078125 C9.73660156 14.20648438 9.77398437 14.90515625 9.8125 15.625 C7.5025 15.625 5.1925 15.625 2.8125 15.625 C3.1425 12.985 3.4725 10.345 3.8125 7.625 C2.8225 7.625 1.8325 7.625 0.8125 7.625 C1.1425 10.265 1.4725 12.905 1.8125 15.625 C-0.4975 15.625 -2.8075 15.625 -5.1875 15.625 C-5.10371094 14.94953125 -5.01992188 14.2740625 -4.93359375 13.578125 C-4.83175781 12.68609375 -4.72992188 11.7940625 -4.625 10.875 C-4.52058594 9.99328125 -4.41617188 9.1115625 -4.30859375 8.203125 C-4.19293324 5.74067549 -4.45111305 3.95961936 -5.1875 1.625 C-2.1875 -0.375 -2.1875 -0.375 0 0 Z " fill="#183C35" transform="translate(47.1875,30.375)"/>
<path d="M0 0 C0 1.98 0 3.96 0 6 C-0.763125 5.95875 -1.52625 5.9175 -2.3125 5.875 C-5.22718416 5.77919176 -5.22718416 5.77919176 -8 8 C-10.6875 8.125 -10.6875 8.125 -13 8 C-12.67 9.65 -12.34 11.3 -12 13 C-14.64 13 -17.28 13 -20 13 C-20 12.34 -20 11.68 -20 11 C-19.34 11 -18.68 11 -18 11 C-18.144375 9.741875 -18.28875 8.48375 -18.4375 7.1875 C-18.51871094 6.47980469 -18.59992187 5.77210937 -18.68359375 5.04296875 C-18.97170735 2.80603607 -18.97170735 2.80603607 -20 0 C-18.51886719 0.01740234 -18.51886719 0.01740234 -17.0078125 0.03515625 C-15.72648437 0.04417969 -14.44515625 0.05320313 -13.125 0.0625 C-11.21074219 0.07990234 -11.21074219 0.07990234 -9.2578125 0.09765625 C-0.54505814 -0.16351744 -0.54505814 -0.16351744 0 0 Z M-13 2 C-13 3.32 -13 4.64 -13 6 C-12.34 6 -11.68 6 -11 6 C-11 4.68 -11 3.36 -11 2 C-11.66 2 -12.32 2 -13 2 Z " fill="#153734" transform="translate(42,49)"/>
<path d="M0 0 C1.09969293 3.29907878 0.90192008 4.70906261 0.25 8.0625 C0.09015625 8.94035156 -0.0696875 9.81820312 -0.234375 10.72265625 C-1 13 -1 13 -4 15 C-8.07490752 15.33957563 -9.53001271 15.31332486 -13 13 C-13 11.68 -13 10.36 -13 9 C-12.01 8.67 -11.02 8.34 -10 8 C-9.34 8.33 -8.68 8.66 -8 9 C-8 9.99 -8 10.98 -8 12 C-7.34 12 -6.68 12 -6 12 C-6.14107747 10.54119891 -6.28802415 9.08296449 -6.4375 7.625 C-6.51871094 6.81289063 -6.59992187 6.00078125 -6.68359375 5.1640625 C-6.89090114 2.95727195 -6.89090114 2.95727195 -8 1 C-5.29120665 -0.35439668 -2.99066732 -0.06501451 0 0 Z " fill="#0B1624" transform="translate(40,30)"/>
<path d="M0 0 C6.55331386 3.73399 12.96189113 7.47141835 19 12 C17.68 12.33 16.36 12.66 15 13 C15 13.99 15 14.98 15 16 C14.34 16 13.68 16 13 16 C13 15.34 13 14.68 13 14 C12.175 13.79375 11.35 13.5875 10.5 13.375 C6.17571376 11.67617326 2.12025779 9.50831015 -1 6 C-1.2890625 3.36328125 -1.2890625 3.36328125 -1 1 C-0.67 0.67 -0.34 0.34 0 0 Z " fill="#29302F" transform="translate(129,45)"/>
<path d="M0 0 C1.4540625 0.0309375 1.4540625 0.0309375 2.9375 0.0625 C3.2675 1.3825 3.5975 2.7025 3.9375 4.0625 C4.2675 2.7425 4.5975 1.4225 4.9375 0.0625 C6.5875 0.3925 8.2375 0.7225 9.9375 1.0625 C8.9475 1.5575 8.9475 1.5575 7.9375 2.0625 C7.12483862 4.5540662 6.53032068 7.07048201 5.9140625 9.6171875 C4.75567272 12.51779551 3.6219226 13.52191966 0.9375 15.0625 C-1.25 14.875 -1.25 14.875 -3.0625 14.0625 C-3.3925 13.4025 -3.7225 12.7425 -4.0625 12.0625 C-3.7325 11.4025 -3.4025 10.7425 -3.0625 10.0625 C-2.0725 10.3925 -1.0825 10.7225 -0.0625 11.0625 C-1.1719072 7.57579166 -2.32587666 4.28765763 -4.0625 1.0625 C-3.0625 0.0625 -3.0625 0.0625 0 0 Z " fill="#1C3B52" transform="translate(104.0625,33.9375)"/>
<path d="M0 0 C1 1 1 1 1.3125 3.875 C1 7 1 7 -0.5625 8.9375 C-4.02409525 10.44640049 -6.38547801 9.8701627 -10 9 C-10.66 8.34 -11.32 7.68 -12 7 C-11.875 4 -11.875 4 -11 1 C-7.65127434 -1.96233424 -4.10779892 -0.85256204 0 0 Z M-7 2 C-6.67 3.65 -6.34 5.3 -6 7 C-5.34 7 -4.68 7 -4 7 C-4 5.35 -4 3.7 -4 2 C-4.99 2 -5.98 2 -7 2 Z " fill="#1B254B" transform="translate(69,35)"/>
<path d="M0 0 C4.875 0.875 4.875 0.875 6 2 C6.23287008 3.68183948 6.41264166 5.3712416 6.5625 7.0625 C6.64628906 7.98160156 6.73007813 8.90070312 6.81640625 9.84765625 C6.87699219 10.55792969 6.93757813 11.26820312 7 12 C4.69 12 2.38 12 0 12 C0.33 9.36 0.66 6.72 1 4 C0.01 4.495 0.01 4.495 -1 5 C-1.65555119 7.52733235 -1.65555119 7.52733235 -2 10 C-2.66 9.67 -3.32 9.34 -4 9 C-4.73075648 6.6859378 -5.40138258 4.35171131 -6 2 C-4.02 1.67 -2.04 1.34 0 1 C0 0.67 0 0.34 0 0 Z " fill="#0C3727" transform="translate(93,34)"/>
<path d="M0 0 C3.5 0.25 3.5 0.25 5.5 2.25 C5.8125 4.75 5.8125 4.75 5.5 7.25 C2.03076119 9.56282587 0.57794425 9.67478586 -3.5 9.25 C-5.4375 8 -5.4375 8 -6.5 6.25 C-6.09230563 1.76536188 -4.51551931 0.32253709 0 0 Z M-1.5 2.25 C-1.17 3.9 -0.84 5.55 -0.5 7.25 C0.16 6.59 0.82 5.93 1.5 5.25 C1.17 4.26 0.84 3.27 0.5 2.25 C-0.16 2.25 -0.82 2.25 -1.5 2.25 Z " fill="#11143F" transform="translate(109.5,52.75)"/>
<path d="M0 0 C1.32 0.33 2.64 0.66 4 1 C4.33 5.29 4.66 9.58 5 14 C2.69 14 0.38 14 -2 14 C-1.67 11.69 -1.34 9.38 -1 7 C-1.66 6.67 -2.32 6.34 -3 6 C-3 3 -3 3 -1.75 1.25 C-1.1725 0.8375 -0.595 0.425 0 0 Z " fill="#020A16" transform="translate(65,48)"/>
<path d="M0 0 C0 0.66 0 1.32 0 2 C1.32 2 2.64 2 4 2 C4 2.66 4 3.32 4 4 C2.68 4 1.36 4 0 4 C0.27617533 5.94074861 0.27617533 5.94074861 1 8 C1.99 8.66 2.98 9.32 4 10 C2 12 2 12 -0.5 12.25 C-3 12 -3 12 -5 10 C-5.125 6.875 -5.125 6.875 -5 4 C-5.66 3.67 -6.32 3.34 -7 3 C-2.25 0 -2.25 0 0 0 Z " fill="#0D0A32" transform="translate(99,50)"/>
<path d="M0 0 C3.5625 0.1875 3.5625 0.1875 5.5625 2.1875 C4.9025 2.1875 4.2425 2.1875 3.5625 2.1875 C3.8925 4.1675 4.2225 6.1475 4.5625 8.1875 C-1.84944487 9.51828101 -1.84944487 9.51828101 -4.4375 8.0625 C-5.4375 6.1875 -5.4375 6.1875 -5.1875 3.5625 C-4.03548686 -0.08554162 -4.05612355 0.2212431 0 0 Z M-0.4375 1.1875 C-0.7675 1.8475 -1.0975 2.5075 -1.4375 3.1875 C-0.4475 2.8575 0.5425 2.5275 1.5625 2.1875 C0.9025 1.8575 0.2425 1.5275 -0.4375 1.1875 Z " fill="#082738" transform="translate(75.4375,52.8125)"/>
<path d="M0 0 C0.928125 0.20625 1.85625 0.4125 2.8125 0.625 C1 1.6875 1 1.6875 -1.1875 2.625 C-2.1775 2.295 -3.1675 1.965 -4.1875 1.625 C-3.1975 3.935 -2.2075 6.245 -1.1875 8.625 C-0.5275 7.305 0.1325 5.985 0.8125 4.625 C0.8125 6.935 0.8125 9.245 0.8125 11.625 C-3.4775 11.625 -7.7675 11.625 -12.1875 11.625 C-12.5175 10.965 -12.8475 10.305 -13.1875 9.625 C-10.7125 10.12 -10.7125 10.12 -8.1875 10.625 C-8.1875 8.645 -8.1875 6.665 -8.1875 4.625 C-7.8575 4.625 -7.5275 4.625 -7.1875 4.625 C-7.1875 6.275 -7.1875 7.925 -7.1875 9.625 C-6.5275 9.625 -5.8675 9.625 -5.1875 9.625 C-5.5175 6.985 -5.8475 4.345 -6.1875 1.625 C-3.1875 -0.375 -3.1875 -0.375 0 0 Z " fill="#273158" transform="translate(91.1875,34.375)"/>
<path d="M0 0 C1.98 0 3.96 0 6 0 C6 1.98 6 3.96 6 6 C6.99 6.33 7.98 6.66 9 7 C8.01 7 7.02 7 6 7 C5.67 8.65 5.34 10.3 5 12 C5.99 11.67 6.98 11.34 8 11 C8 11.66 8 12.32 8 13 C5.36 13 2.72 13 0 13 C0 12.34 0 11.68 0 11 C0.66 11 1.32 11 2 11 C1.855625 9.741875 1.71125 8.48375 1.5625 7.1875 C1.48128906 6.47980469 1.40007813 5.77210937 1.31640625 5.04296875 C1.02829265 2.80603607 1.02829265 2.80603607 0 0 Z " fill="#0A1A29" transform="translate(22,49)"/>
<path d="M0 0 C1.32 0.33 2.64 0.66 4 1 C1.03 6.28 -1.94 11.56 -5 17 C-6.32 16.67 -7.64 16.34 -9 16 C-6.03 10.72 -3.06 5.44 0 0 Z " fill="#1D5A3F" transform="translate(123,49)"/>
<path d="M0 0 C1.65 0.33 3.3 0.66 5 1 C5.33 2.65 5.66 4.3 6 6 C6 4.02 6 2.04 6 0 C6.99 0.66 7.98 1.32 9 2 C8.67 3.65 8.34 5.3 8 7 C8.66 7 9.32 7 10 7 C10 7.66 10 8.32 10 9 C8.18674449 8.88648483 6.37436643 8.75887039 4.5625 8.625 C3.55316406 8.55539063 2.54382812 8.48578125 1.50390625 8.4140625 C0.67761719 8.27742188 -0.14867187 8.14078125 -1 8 C-1.33 7.34 -1.66 6.68 -2 6 C-1.34 6 -0.68 6 0 6 C0 4.02 0 2.04 0 0 Z " fill="#020732" transform="translate(37,54)"/>
<path d="M0 0 C4 1 4 1 6 4 C6.07905064 6.33199388 6.08798769 8.66832622 6 11 C4.02 11 2.04 11 0 11 C0 7.37 0 3.74 0 0 Z " fill="#061533" transform="translate(71,35)"/>
<path d="M0 0 C2.375 0.6875 2.375 0.6875 5 2 C6.375 4.5 6.375 4.5 7 7 C6.67 7.66 6.34 8.32 6 9 C6.33 9.33 6.66 9.66 7 10 C5.75 11.5625 5.75 11.5625 4 13 C1.875 12.8125 1.875 12.8125 0 12 C-0.33 11.34 -0.66 10.68 -1 10 C-0.67 9.34 -0.34 8.68 0 8 C0.99 8.33 1.98 8.66 3 9 C2.690625 8.071875 2.38125 7.14375 2.0625 6.1875 C1.375 4.125 0.6875 2.0625 0 0 Z " fill="#141648" transform="translate(101,36)"/>
<path d="M0 0 C0 1.65 0 3.3 0 5 C-2.0625 6.25 -2.0625 6.25 -5 7 C-7.60906369 5.95421827 -9.63966471 4.57355686 -12 3 C-7.80491562 0.75263337 -4.79167039 0 0 0 Z " fill="#273239" transform="translate(24,29)"/>
<path d="M0 0 C2.97 1.65 5.94 3.3 9 5 C8.67 5.99 8.34 6.98 8 8 C2.55263158 9.33157895 2.55263158 9.33157895 0.125 7.875 C-1.33772308 5.43712819 -1.29431219 3.7959658 -1 1 C-0.67 0.67 -0.34 0.34 0 0 Z " fill="#252A6F" transform="translate(129,45)"/>
<path d="M0 0 C3.465 1.98 3.465 1.98 7 4 C6.67 5.65 6.34 7.3 6 9 C2.12867972 8.42647107 -0.08172796 6.51295648 -3 4 C-2.01 3.67 -1.02 3.34 0 3 C0 2.01 0 1.02 0 0 Z " fill="#12180C" transform="translate(15,42)"/>
<path d="M0 0 C0.99 0 1.98 0 3 0 C3.66 3.3 4.32 6.6 5 10 C2.69 10 0.38 10 -2 10 C-1.34 6.7 -0.68 3.4 0 0 Z " fill="#100C37" transform="translate(44,36)"/>
<path d="M0 0 C0.7734375 0.7115625 0.7734375 0.7115625 1.5625 1.4375 C-1.4075 2.0975 -4.3775 2.7575 -7.4375 3.4375 C-7.7675 2.7775 -8.0975 2.1175 -8.4375 1.4375 C-10.0875 1.4375 -11.7375 1.4375 -13.4375 1.4375 C-13.4375 0.4475 -13.4375 -0.5425 -13.4375 -1.5625 C-8.78641127 -3.23689194 -4.13501749 -2.65065224 0 0 Z " fill="#21233C" transform="translate(17.4375,34.5625)"/>
<path d="M0 0 C0.66 0.66 1.32 1.32 2 2 C3.98356483 2.71408334 5.98315437 3.38617742 8 4 C4.17482487 6.39073445 0.40334476 6.55966552 -4 7 C-4 5.35 -4 3.7 -4 2 C-2.68 1.34 -1.36 0.68 0 0 Z " fill="#851B46" transform="translate(129,61)"/>
<path d="M0 0 C1.35015859 4.05047576 0.62084998 6.7920168 0 11 C-0.391875 10.46375 -0.78375 9.9275 -1.1875 9.375 C-3.3755388 6.50791468 -5.67879296 3.76035432 -8 1 C-5.29120665 -0.35439668 -2.99066732 -0.06501451 0 0 Z " fill="#115B1A" transform="translate(40,30)"/>
<path d="M0 0 C0.598125 0.350625 1.19625 0.70125 1.8125 1.0625 C1.4825 1.3925 1.1525 1.7225 0.8125 2.0625 C0.77169217 4.06208364 0.76995644 6.06295254 0.8125 8.0625 C-0.8375 7.7325 -2.4875 7.4025 -4.1875 7.0625 C-4.5175 4.7525 -4.8475 2.4425 -5.1875 0.0625 C-2.1875 -0.9375 -2.1875 -0.9375 0 0 Z " fill="#02042E" transform="translate(54.1875,53.9375)"/>
<path d="M0 0 C1.65 0 3.3 0 5 0 C7 6.625 7 6.625 7 10 C5.68 9.67 4.36 9.34 3 9 C3.66 8.67 4.32 8.34 5 8 C2.78065836 4.67098753 1.65316671 4.24976756 -2 3 C-1.34 2.67 -0.68 2.34 0 2 C0 1.34 0 0.68 0 0 Z " fill="#145553" transform="translate(56,53)"/>
<path d="M0 0 C0.99 0.33 1.98 0.66 3 1 C3.33 4.3 3.66 7.6 4 11 C1.69 11 -0.62 11 -3 11 C-2.67 8.69 -2.34 6.38 -2 4 C-0.9375 5.875 -0.9375 5.875 0 8 C-0.33 8.66 -0.66 9.32 -1 10 C-0.34 10 0.32 10 1 10 C0.814375 9.236875 0.62875 8.47375 0.4375 7.6875 C0 5 0 5 1 2 C0.67 1.34 0.34 0.68 0 0 Z " fill="#0F4858" transform="translate(53,35)"/>
<path d="M0 0 C1.98 0.99 3.96 1.98 6 3 C6 4.32 6 5.64 6 7 C4.35 7.33 2.7 7.66 1 8 C0.17361624 5.10765685 0 3.11257569 0 0 Z " fill="#2D3922" transform="translate(9,38)"/>
<path d="M0 0 C0.33 0 0.66 0 1 0 C1.33 2.97 1.66 5.94 2 9 C-0.31 9 -2.62 9 -5 9 C-4.34 7.02 -3.68 5.04 -3 3 C-2.34 3 -1.68 3 -1 3 C-0.67 2.01 -0.34 1.02 0 0 Z " fill="#0F0B2B" transform="translate(98,37)"/>
<path d="M0 0 C0.2475 0.61875 0.495 1.2375 0.75 1.875 C1.82396211 4.15001528 1.82396211 4.15001528 4.0625 5 C6 6 6 6 6.75 8.125 C6.87375 9.053125 6.87375 9.053125 7 10 C6.34 10 5.68 10 5 10 C5 9.34 5 8.68 5 8 C4.071875 7.731875 3.14375 7.46375 2.1875 7.1875 C-0.76240366 6.08851629 -2.05615186 5.37581439 -4 3 C-2.68 2.67 -1.36 2.34 0 2 C0 1.34 0 0.68 0 0 Z " fill="#100E25" transform="translate(137,51)"/>
<path d="M0 0 C2.475 0.99 2.475 0.99 5 2 C5.125 4.875 5.125 4.875 5 8 C4.34 8.66 3.68 9.32 3 10 C2.01 10 1.02 10 0 10 C0.37125 8.906875 0.7425 7.81375 1.125 6.6875 C1.558125 4.8621875 1.558125 4.8621875 2 3 C1.34 2.01 0.68 1.02 0 0 Z " fill="#18424D" transform="translate(65,34)"/>
<path d="M0 0 C3.67230705 3.07999946 4.56802365 5.2482602 5 10 C3.35 9.67 1.7 9.34 0 9 C0 6.03 0 3.06 0 0 Z " fill="#020C09" transform="translate(34,33)"/>
<path d="M0 0 C0.6875 1.6875 0.6875 1.6875 1 4 C-0.4375 6.75 -0.4375 6.75 -2 9 C-3.32 8.67 -4.64 8.34 -6 8 C-2.25 1.125 -2.25 1.125 0 0 Z " fill="#172137" transform="translate(120,57)"/>
<path d="M0 0 C2.1875 0.3125 2.1875 0.3125 4 1 C4 2.98 4 4.96 4 7 C2.68 6.67 1.36 6.34 0 6 C0.33 5.34 0.66 4.68 1 4 C-0.32 3.67 -1.64 3.34 -3 3 C-1.75 1.4375 -1.75 1.4375 0 0 Z " fill="#25323C" transform="translate(65,48)"/>
<path d="M0 0 C0.66 0 1.32 0 2 0 C3.98362069 2.91708924 3.9876191 4.12380904 3.625 7.75 C3.41875 8.8225 3.2125 9.895 3 11 C2.34 11 1.68 11 1 11 C0.7834375 9.63875 0.7834375 9.63875 0.5625 8.25 C0.07533901 5.13728293 0.07533901 5.13728293 -0.625 2.6875 C-0.74875 2.130625 -0.8725 1.57375 -1 1 C-0.67 0.67 -0.34 0.34 0 0 Z " fill="#062518" transform="translate(51,34)"/>
<path d="M0 0 C2.375 -0.125 2.375 -0.125 5 0 C5.66 0.66 6.32 1.32 7 2 C6.625 4.125 6.625 4.125 6 6 C4.125 5.8125 4.125 5.8125 2 5 C0.75 2.4375 0.75 2.4375 0 0 Z " fill="#164D3B" transform="translate(108,53)"/>
<path d="M0 0 C2 0.6875 2 0.6875 4 2.6875 C3.34 4.3375 2.68 5.9875 2 7.6875 C1.67 7.6875 1.34 7.6875 1 7.6875 C1 6.0375 1 4.3875 1 2.6875 C-0.32 2.6875 -1.64 2.6875 -3 2.6875 C-3.33 3.3475 -3.66 4.0075 -4 4.6875 C-4 3.3675 -4 2.0475 -4 0.6875 C-2 -0.3125 -2 -0.3125 0 0 Z " fill="#09101B" transform="translate(64,34.3125)"/>
<path d="M0 0 C1.65 0.33 3.3 0.66 5 1 C4.01 1.33 3.02 1.66 2 2 C2 2.99 2 3.98 2 5 C2.66 5.66 3.32 6.32 4 7 C2.35 7.33 0.7 7.66 -1 8 C-1.33 7.34 -1.66 6.68 -2 6 C-1.34 6 -0.68 6 0 6 C0 4.02 0 2.04 0 0 Z " fill="#080715" transform="translate(37,54)"/>
<path d="M0 0 C0.99 1.32 1.98 2.64 3 4 C4.32 3.67 5.64 3.34 7 3 C6.67 4.32 6.34 5.64 6 7 C3.03 6.505 3.03 6.505 0 6 C-1.125 2.25 -1.125 2.25 0 0 Z " fill="#364730" transform="translate(1,34)"/>
<path d="M0 0 C1.32 0.33 2.64 0.66 4 1 C3.01 1.495 3.01 1.495 2 2 C2.33 3.65 2.66 5.3 3 7 C2.01 7.33 1.02 7.66 0 8 C0 6.68 0 5.36 0 4 C-0.66 4 -1.32 4 -2 4 C-2 3.34 -2 2.68 -2 2 C-1.34 2 -0.68 2 0 2 C0 1.34 0 0.68 0 0 Z " fill="#18464A" transform="translate(81,53)"/>
<path d="M0 0 C0.99 0.33 1.98 0.66 3 1 C2.67 2.65 2.34 4.3 2 6 C0.68 5.67 -0.64 5.34 -2 5 C-1.125 1.125 -1.125 1.125 0 0 Z " fill="#082D23" transform="translate(116,39)"/>
<path d="M0 0 C1.98 0.495 1.98 0.495 4 1 C3.67 2.98 3.34 4.96 3 7 C1.68 6.67 0.36 6.34 -1 6 C-0.67 4.02 -0.34 2.04 0 0 Z " fill="#051B2D" transform="translate(57,56)"/>
<path d="M0 0 C1.65 0 3.3 0 5 0 C4.67 2.64 4.34 5.28 4 8 C3.34 7.67 2.68 7.34 2 7 C1.26924352 4.6859378 0.59861742 2.35171131 0 0 Z " fill="#021218" transform="translate(87,36)"/>
<path d="M0 0 C0.99 0 1.98 0 3 0 C3.33 1.98 3.66 3.96 4 6 C2.68 6 1.36 6 0 6 C-1.125 2.25 -1.125 2.25 0 0 Z " fill="#102C3E" transform="translate(66,56)"/>
<path d="M0 0 C0.33 2.31 0.66 4.62 1 7 C-0.32 6.67 -1.64 6.34 -3 6 C-3.33 4.35 -3.66 2.7 -4 1 C-2 0 -2 0 0 0 Z " fill="#282D3F" transform="translate(93,55)"/>
<path d="M0 0 C0.99 0.66 1.98 1.32 3 2 C2.34 2 1.68 2 1 2 C1.33 2.99 1.66 3.98 2 5 C0.02 5.33 -1.96 5.66 -4 6 C-4 5.34 -4 4.68 -4 4 C-4.66 4 -5.32 4 -6 4 C-5.67 3.34 -5.34 2.68 -5 2 C-3.68 2 -2.36 2 -1 2 C-0.67 1.34 -0.34 0.68 0 0 Z " fill="#011C16" transform="translate(78,53)"/>
<path d="M0 0 C-2 2 -2 2 -4.625 2.125 C-5.40875 2.08375 -6.1925 2.0425 -7 2 C-7 3.32 -7 4.64 -7 6 C-7.66 6 -8.32 6 -9 6 C-8.8125 3.625 -8.8125 3.625 -8 1 C-4.72494404 -0.89608503 -3.64512471 -1.21504157 0 0 Z " fill="#13474C" transform="translate(36,55)"/>
<path d="M0 0 C2.64 0 5.28 0 8 0 C6.515 1.98 6.515 1.98 5 4 C2.525 3.01 2.525 3.01 0 2 C0 1.34 0 0.68 0 0 Z " fill="#172D55" transform="translate(44,53)"/>
<path d="M0 0 C0.928125 0.20625 1.85625 0.4125 2.8125 0.625 C1 1.6875 1 1.6875 -1.1875 2.625 C-2.1775 2.295 -3.1675 1.965 -4.1875 1.625 C-4.1875 3.935 -4.1875 6.245 -4.1875 8.625 C-4.5175 8.625 -4.8475 8.625 -5.1875 8.625 C-5.5175 6.315 -5.8475 4.005 -6.1875 1.625 C-3.1875 -0.375 -3.1875 -0.375 0 0 Z " fill="#267167" transform="translate(91.1875,34.375)"/>
<path d="M0 0 C2.375 0.6875 2.375 0.6875 5 2 C6.375 4.5 6.375 4.5 7 7 C6.67 7.66 6.34 8.32 6 9 C3 4.25 3 4.25 3 2 C2.01 1.67 1.02 1.34 0 1 C0 0.67 0 0.34 0 0 Z " fill="#040721" transform="translate(101,36)"/>
<path d="M0 0 C1.98 0 3.96 0 6 0 C6 0.99 6 1.98 6 3 C5.01 3.495 5.01 3.495 4 4 C1.375 3.0625 1.375 3.0625 -1 2 C-0.67 1.34 -0.34 0.68 0 0 Z " fill="#102C31" transform="translate(101,34)"/>
<path d="M0 0 C1.98 0.66 3.96 1.32 6 2 C2.77208445 4.1519437 1.71599191 4.20086443 -2 4 C-1.34 2.68 -0.68 1.36 0 0 Z " fill="#160F22" transform="translate(13,33)"/>
<path d="M0 0 C0.33 1.65 0.66 3.3 1 5 C-2.26954202 4.43628586 -3.82575883 3.50037734 -6 1 C-3.92446352 0.4465236 -2.15634036 0 0 0 Z " fill="#31919B" transform="translate(18,30)"/>
<path d="M0 0 C0.556875 0.185625 1.11375 0.37125 1.6875 0.5625 C4.399133 1.07551165 6.34371039 0.6640724 9 0 C9 0.66 9 1.32 9 2 C2.25 3.125 2.25 3.125 0 2 C0 1.34 0 0.68 0 0 Z " fill="#050C1F" transform="translate(71,59)"/>
<path d="M0 0 C0.99 0.33 1.98 0.66 3 1 C2.34 1 1.68 1 1 1 C1 1.99 1 2.98 1 4 C1.66 4 2.32 4 3 4 C3 4.66 3 5.32 3 6 C1.68 6 0.36 6 -1 6 C-1.042721 4.33388095 -1.04063832 2.66617115 -1 1 C-0.67 0.67 -0.34 0.34 0 0 Z " fill="#5A1321" transform="translate(126,62)"/>
<path d="M0 0 C0.99 0 1.98 0 3 0 C3.33 1.65 3.66 3.3 4 5 C3.01 5 2.02 5 1 5 C0.34 4.01 -0.32 3.02 -1 2 C-0.67 1.34 -0.34 0.68 0 0 Z " fill="#133549" transform="translate(39,56)"/>
<path d="M0 0 C1.32 0.66 2.64 1.32 4 2 C3.67 3.65 3.34 5.3 3 7 C2.34 6.67 1.68 6.34 1 6 C1 5.34 1 4.68 1 4 C0.34 3.67 -0.32 3.34 -1 3 C-0.67 2.01 -0.34 1.02 0 0 Z " fill="#061739" transform="translate(52,53)"/>
<path d="M0 0 C0 0.66 0 1.32 0 2 C1.32 2 2.64 2 4 2 C4 2.66 4 3.32 4 4 C-0.55384615 4.36923077 -0.55384615 4.36923077 -2.8125 2.5 C-3.4003125 1.7575 -3.4003125 1.7575 -4 1 C-2 0 -2 0 0 0 Z " fill="#16455F" transform="translate(99,50)"/>
<path d="M0 0 C0.33 0.99 0.66 1.98 1 3 C0.67 3.66 0.34 4.32 0 5 C-1.32 4.67 -2.64 4.34 -4 4 C-3.67 3.01 -3.34 2.02 -3 1 C-2.01 0.67 -1.02 0.34 0 0 Z " fill="#2A2233" transform="translate(21,46)"/>
<path d="M0 0 C2.475 0.495 2.475 0.495 5 1 C5.33 1.99 5.66 2.98 6 4 C4.35 4 2.7 4 1 4 C0.67 2.68 0.34 1.36 0 0 Z " fill="#050838" transform="translate(60,41)"/>
<path d="M0 0 C2.475 0.495 2.475 0.495 5 1 C5 1.99 5 2.98 5 4 C3.35 4.33 1.7 4.66 0 5 C0 3.35 0 1.7 0 0 Z " fill="#0A090E" transform="translate(2,34)"/>
</svg>
