<svg width="120" height="33" viewBox="0 0 120 33" fill="none" xmlns="http://www.w3.org/2000/svg">
<path fill-rule="evenodd" clip-rule="evenodd" d="M16.646 1.687C16.268 2.065 15.181 2.487 14.23 2.626C6.01 3.822 0 6.152 0 8.143C0 9.538 15.014 19 17.229 19C18.953 19 19.156 19.567 18.843 23.5C18.517 27.61 18.681 28 20.743 28C22.333 28 23 27.409 23 26C23 24.695 23.667 24 24.918 24C25.973 24 27.616 23.701 28.568 23.336C30.016 22.78 30.194 23.09 29.659 25.223C29.107 27.423 29.397 27.851 31.759 28.317C38.532 29.655 38.449 29.682 39.109 26C39.709 22.657 40.178 23.197 40.398 27.484C40.481 29.098 41.217 29.471 44.345 29.484C46.46 29.493 48.399 29.163 48.654 28.75C48.909 28.337 50.918 28 53.118 28C56.028 28 56.926 27.659 56.412 26.75C55.848 25.75 55.976 25.75 57.053 26.75C58.663 28.244 63.628 28.411 64.5 27C64.84 26.45 64.24 26 63.166 26C62.092 26 60.941 25.288 60.607 24.418C59.786 22.278 59.778 22.299 61.641 21.584C63.009 21.059 63.074 21.207 62.029 22.465C61.006 23.697 61.064 24.087 62.339 24.577C63.2 24.907 64.399 24.871 65.004 24.497C65.728 24.05 66.001 24.79 65.802 26.659C65.56 28.934 65.898 29.5 67.5 29.5C69.025 29.5 69.574 28.729 69.813 26.25C69.986 24.462 70.582 23 71.139 23C71.695 23 72.004 24.456 71.825 26.235C71.579 28.682 71.927 29.552 73.253 29.809C74.217 29.995 75.252 29.506 75.553 28.722C75.898 27.823 77.006 27.47 78.556 27.766C79.906 28.024 81.644 27.711 82.417 27.069C83.378 26.271 84.027 26.234 84.47 26.951C85.455 28.545 90.654 28.203 92.429 26.429C94.503 24.355 94.395 23.833 91.449 21.689C88.459 19.512 85.582 20.183 83.358 23.576C81.316 26.693 80 26.663 80 23.5C80 21.816 80.571 20.974 81.75 20.921C83.144 20.858 83.195 20.726 82 20.271C81.175 19.957 80.224 19.279 79.888 18.764C79.524 18.208 77.403 18.463 74.665 19.393C72.129 20.254 69.367 20.694 68.527 20.372C67.687 20.05 67 20.261 67 20.841C67 21.58 66.097 21.581 63.983 20.844C61.585 20.008 60.456 20.126 58.483 21.419C57.117 22.314 56 22.586 56 22.023C56 20.575 50.67 20.75 49.053 22.25C48.145 23.093 47.923 23.115 48.37 22.319C49.314 20.636 47.176 19.609 45.545 20.962C44.696 21.667 43.952 21.731 43.582 21.132C42.954 20.116 37.016 20.254 35.283 21.325C34.725 21.67 34.371 22.976 34.496 24.226C34.622 25.477 34.529 25.706 34.291 24.735C34.036 23.699 33.371 23.262 32.679 23.677C32.012 24.077 32.096 23.649 32.872 22.692C34.1 21.179 33.95 21 31.456 21C28.579 21 28.566 20.034 31.436 19.612C32.326 19.482 32.93 18.953 32.777 18.437C32.625 17.922 31.825 17.631 31 17.791C29.031 18.173 26.343 18.269 21.75 18.121C19.241 18.04 18 17.532 18 16.586C18 14.971 8.3 8.652 7.817 9.952C7.642 10.42 6.983 10.239 6.35 9.551C5.454 8.575 5.785 8.275 7.85 8.192C9.308 8.133 12.525 7.486 15 6.753C18.365 5.757 19.581 4.863 19.82 3.21C20.129 1.067 18.195 0.138997 16.646 1.687ZM36.667 2.931C35.184 3.46 34.802 4.769 34.667 9.793C34.51 15.614 34.64 16.001 36.75 16C38.655 16 39 15.463 39 12.5C39 10.575 39.484 9 40.075 9C40.688 9 41.011 10.392 40.825 12.235C40.573 14.742 40.917 15.55 42.356 15.829C43.377 16.026 44.705 15.695 45.306 15.094C46.098 14.302 46.052 14 45.141 14C44.449 14 44.167 13.539 44.515 12.976C45.769 10.947 43.929 6 41.921 6C40.864 6 39.941 6.563 39.868 7.25C39.796 7.938 39.458 7.1 39.118 5.389C38.625 2.909 38.129 2.411 36.667 2.931ZM14.296 5.104C13.536 5.864 13.004 5.815 12.458 4.933C11.964 4.132 12.101 3.945 12.845 4.405C13.48 4.797 14 4.566 14 3.892C14 3.218 14.308 2.974 14.683 3.35C15.059 3.726 14.885 4.515 14.296 5.104ZM26.765 7.608C27.255 11.951 25.874 13.719 24.595 10.387C24.092 9.075 23.697 9.007 22.476 10.02C20.299 11.826 22.455 14 26.422 14C31.728 14 33.716 9.852 30.468 5.559C27.731 1.94 26.22 2.776 26.765 7.608ZM31 4.559C31 5.416 31.457 5.835 32.016 5.49C32.575 5.144 32.774 4.443 32.457 3.931C31.6 2.544 31 2.802 31 4.559ZM48.895 7.365C47.337 8.142 46.5 9.422 46.5 11.03C46.5 13.291 46.881 13.5 51 13.5C54.067 13.5 55.42 13.102 55.25 12.25C55.113 11.563 55.563 10.993 56.25 10.985C57.185 10.973 57.163 10.756 56.165 10.123C55.43 9.657 54.901 8.899 54.989 8.438C55.287 6.869 51.298 6.167 48.895 7.365ZM59 6.757C56.745 7.198 56.881 16 59.143 16C60.909 16 62 14.037 62 10.859C62 9.722 62.45 9.16 63.059 9.536C63.642 9.896 63.979 11.386 63.809 12.846C63.518 15.345 63.762 15.511 67.974 15.696C72.736 15.905 73.96 14.989 73.985 11.191C73.994 9.823 74.432 9.149 75.059 9.536C75.642 9.896 75.979 11.386 75.809 12.846C75.564 14.952 75.964 15.566 77.75 15.82C79.715 16.099 80 15.697 80 12.641C80 8.321 78.168 6.358 74.389 6.63C72.8 6.744 70.949 6.874 70.275 6.919C69.467 6.972 69.246 7.979 69.626 9.879C69.953 11.516 69.727 13.051 69.101 13.438C68.415 13.862 68 13.2 68 11.681C68 7.786 64.246 5.732 59 6.757ZM82.254 7.146C81.393 8.007 81.608 9.271 83.119 12.234L85.131 16.176L83.065 15.521C81.578 15.049 81 15.304 81 16.433C81 17.446 81.901 18 83.548 18C86.686 18 89.822 12.242 87.633 10.5C86.942 9.95 86.081 8.712 85.719 7.75C84.958 5.72 83.87 5.53 82.254 7.146ZM88.255 6.842C87.613 7.239 87.452 8.113 87.891 8.824C88.512 9.829 88.929 9.79 89.887 8.636C91.23 7.018 90.057 5.729 88.255 6.842ZM52 10.691C52 13.253 51.932 13.29 50.589 11.452C49.154 9.49 49.357 8 51.059 8C51.577 8 52 9.211 52 10.691ZM93.25 10.731C90.958 11.53 91.903 14 94.5 14C95.97 14 97 13.426 97 12.607C97 11.026 95.112 10.081 93.25 10.731ZM103 16.918C103 18.375 104.424 19.91 107.502 21.769C111.841 24.389 112.875 26.433 109.918 26.545C105.422 26.717 101.138 28.362 100.686 30.093C99.994 32.74 100.835 32.989 106.269 31.746C110.775 30.715 110.924 30.573 109.347 28.831C108.356 27.736 108.155 27 108.845 27C109.48 27 110 27.525 110 28.167C110 28.808 110.296 29.037 110.658 28.675C111.02 28.313 111.834 28.447 112.468 28.973C114.318 30.509 119.457 28.655 119.801 26.328C120.033 24.749 118.572 23.37 113.301 20.197C104.029 14.616 103 14.288 103 16.918ZM51.75 17.758C50.788 17.972 50 18.564 50 19.073C50 20.262 54.703 20.289 55.435 19.105C56.125 17.989 54.078 17.241 51.75 17.758ZM96.42 22.25C95.383 24.587 93.965 27.095 93.268 27.821C91.673 29.484 91.669 30.002 93.25 29.992C93.938 29.988 94.988 28.975 95.585 27.742C96.181 26.509 97.688 23.813 98.933 21.75C100.682 18.854 100.868 18 99.751 18C98.955 18 97.456 19.913 96.42 22.25ZM25 21.559C25 22.352 24.55 23 24 23C23.45 23 23 22.073 23 20.941C23 19.809 23.45 19.16 24 19.5C24.55 19.84 25 20.766 25 21.559ZM89.29 24C89.577 25.1 89.46 26 89.029 26C87.789 26 85.948 23.386 86.675 22.658C87.845 21.488 88.755 21.955 89.29 24ZM46 25.5C46 26.875 45.55 28 45 28C44.45 28 44 26.875 44 25.5C44 24.125 44.45 23 45 23C45.55 23 46 24.125 46 25.5ZM50.662 26.25C50.385 26.938 50.158 26.375 50.158 25C50.158 23.625 50.385 23.063 50.662 23.75C50.94 24.438 50.94 25.563 50.662 26.25Z" fill="black"/>
</svg>
