<?xml version="1.0" encoding="UTF-8"?>
<svg version="1.1" xmlns="http://www.w3.org/2000/svg" width="150" height="100">
<path d="M0 0 C-0.6484375 2.38671875 -0.6484375 2.38671875 -2 5 C-4.6015625 6.14453125 -4.6015625 6.14453125 -7.625 6.8125 C-8.62789062 7.04582031 -9.63078125 7.27914062 -10.6640625 7.51953125 C-11.43492188 7.67808594 -12.20578125 7.83664063 -13 8 C-10.65573576 10.44109255 -8.63504026 12.23160907 -5.75 14.0625 C-4.8425 14.701875 -3.935 15.34125 -3 16 C-3 16.99 -3 17.98 -3 19 C-1.989375 18.814375 -0.97875 18.62875 0.0625 18.4375 C4.01505958 17.99832671 7.09693273 18.36131626 11 19 C12.9996695 19.03635763 15.00059462 19.04876598 17 19 C17 22.63 17 26.26 17 30 C17.66 30 18.32 30 19 30 C18.505 27.03 18.505 27.03 18 24 C21.10295323 23.22426169 23.94461621 22.95305707 27.125 23 C30.91435498 23.20423043 30.91435498 23.20423043 34 22 C36.1875 22.4375 36.1875 22.4375 38 23 C38 21.68 38 20.36 38 19 C39.98 19 41.96 19 44 19 C44 22.63 44 26.26 44 30 C44.4640625 28.5459375 44.4640625 28.5459375 44.9375 27.0625 C46 24 46 24 47 23 C50.15656734 22.93973141 53.29729592 22.9797424 56.453125 23.0390625 C59.59340215 23.07571943 61.99496836 23.00167721 65 22 C66.66321482 21.64984951 68.33034549 21.31802943 70 21 C71.66666667 20.66666667 73.33333333 20.33333333 75 20 C75 20.66 75 21.32 75 22 C75.99 22 76.98 22 78 22 C78 22.99 78 23.98 78 25 C77.01 25 76.02 25 75 25 C75 26.32 75 27.64 75 29 C75.99 29 76.98 29 78 29 C77.505 30.485 77.505 30.485 77 32 C71.25 32.125 71.25 32.125 69 31 C69 31.66 69 32.32 69 33 C64.71 33 60.42 33 56 33 C55.67 32.34 55.34 31.68 55 31 C54.67 31.33 54.34 31.66 54 32 C52.62580976 32.0471825 51.24949468 32.03727443 49.875 32 C47.04122773 31.96446681 44.56582844 32.06679562 41.75 32.5 C36.17363566 33.24351524 30.61732178 33.0760239 25 33 C24.67 32.01 24.34 31.02 24 30 C24 30.99 24 31.98 24 33 C20.61725734 34.12758089 19.23221777 33.81750262 15.8125 33.0625 C14.91144531 32.86785156 14.01039062 32.67320313 13.08203125 32.47265625 C12.39496094 32.31667969 11.70789062 32.16070312 11 32 C11.33 29.69 11.66 27.38 12 25 C11.01 25.66 10.02 26.32 9 27 C6.3125 27.125 6.3125 27.125 4 27 C4.33 28.65 4.66 30.3 5 32 C2.36 32 -0.28 32 -3 32 C-3 31.34 -3 30.68 -3 30 C-2.34 30 -1.68 30 -1 30 C-1 27.03 -1 24.06 -1 21 C-1.79664062 21.12375 -2.59328125 21.2475 -3.4140625 21.375 C-8.71777575 20.82036332 -12.09415315 18.03141308 -16.375 15 C-17.20644531 14.42765625 -18.03789062 13.8553125 -18.89453125 13.265625 C-20.93861108 11.85591477 -22.97293134 10.43401283 -25 9 C-24.67 7.35 -24.34 5.7 -24 4 C-20.94233206 3.12785392 -17.87830844 2.28054142 -14.8125 1.4375 C-13.94818359 1.19064453 -13.08386719 0.94378906 -12.19335938 0.68945312 C-4.25311176 -1.47053761 -4.25311176 -1.47053761 0 0 Z M4 21 C4 22.32 4 23.64 4 25 C4.66 25 5.32 25 6 25 C6 23.68 6 22.36 6 21 C5.34 21 4.68 21 4 21 Z M11 21 C11 21.66 11 22.32 11 23 C11.99 22.67 12.98 22.34 14 22 C13.01 21.67 12.02 21.34 11 21 Z M37 25 C37 27.31 37 29.62 37 32 C39.28728734 30.16116119 39.28728734 30.16116119 39.125 27.375 C39.063125 26.199375 39.063125 26.199375 39 25 C38.34 25 37.68 25 37 25 Z M30 26 C30 27.65 30 29.3 30 31 C30.99 31.495 30.99 31.495 32 32 C32 30.02 32 28.04 32 26 C31.34 26 30.68 26 30 26 Z M61 26 C61 27.65 61 29.3 61 31 C61.99 31.495 61.99 31.495 63 32 C63 30.02 63 28.04 63 26 C62.34 26 61.68 26 61 26 Z M56 27 C54.02 27.33 52.04 27.66 50 28 C50 28.33 50 28.66 50 29 C52.31 29 54.62 29 57 29 C56.67 28.34 56.34 27.68 56 27 Z " fill="#111216" transform="translate(25,30)"/>
<path d="M0 0 C0.639375 0.185625 1.27875 0.37125 1.9375 0.5625 C4.21860511 1.17071388 4.21860511 1.17071388 7.4375 0.5 C10.74671406 0.0355489 12.83226962 0.0683146 16 1 C17 2 17 2 17.09765625 3.84765625 C17.06510417 5.8984375 17.03255208 7.94921875 17 10 C17.66 9.67 18.32 9.34 19 9 C19 8.236875 19 7.47375 19 6.6875 C19 4.79166667 19 2.89583333 19 1 C23.29486372 0.24208287 26.77692674 -0.24208037 31 1 C32.66342837 2.66342837 32.36048097 4.7825709 32.5625 7.0625 C32.64628906 7.98160156 32.73007813 8.90070312 32.81640625 9.84765625 C32.87699219 10.55792969 32.93757813 11.26820312 33 12 C30.69 12 28.38 12 26 12 C26.33 9.36 26.66 6.72 27 4 C26.34 4 25.68 4 25 4 C25 6.64 25 9.28 25 12 C18.07 12 11.14 12 4 12 C4 9.36 4 6.72 4 4 C3.731875 4.78375 3.46375 5.5675 3.1875 6.375 C2 9 2 9 -1 11 C-7.45283019 10.54716981 -7.45283019 10.54716981 -10 8 C-9.8125 5 -9.8125 5 -9 2 C-5.51064529 -0.32623648 -4.09517402 -0.25072494 0 0 Z M-5 3 C-4.67 4.65 -4.34 6.3 -4 8 C-3.34 8 -2.68 8 -2 8 C-2.33 6.35 -2.66 4.7 -3 3 C-3.66 3 -4.32 3 -5 3 Z M10 4 C10 5.98 10 7.96 10 10 C10.66 10 11.32 10 12 10 C12 8.02 12 6.04 12 4 C11.34 4 10.68 4 10 4 Z " fill="#211E23" transform="translate(67,34)"/>
<path d="M0 0 C5.0825007 0.51218999 8.60610492 2.98740328 12.75 5.75 C13.43449219 6.18054687 14.11898437 6.61109375 14.82421875 7.0546875 C19.77356388 10.32811576 19.77356388 10.32811576 20.953125 13.828125 C20.96859375 14.54484375 20.9840625 15.2615625 21 16 C13.36957862 19.08151633 5.2915676 22 -3 22 C-3 20.35 -3 18.7 -3 17 C-1.783125 16.54625 -0.56625 16.0925 0.6875 15.625 C3.81253999 14.45973085 6.90133022 13.23946791 10 12 C6.04 9.69 2.08 7.38 -2 5 C-4.64 9.95 -7.28 14.9 -10 20 C-10.99 20 -11.98 20 -13 20 C-12.27372424 16.0781109 -10.52602691 12.82814139 -8.6875 9.3125 C-7.79611328 7.57419922 -7.79611328 7.57419922 -6.88671875 5.80078125 C-5 3 -5 3 -2.83203125 2.23046875 C-1.92517578 2.11638672 -1.92517578 2.11638672 -1 2 C-0.67 1.34 -0.34 0.68 0 0 Z " fill="#131514" transform="translate(128,46)"/>
<path d="M0 0 C0 0.66 0 1.32 0 2 C0.99 2 1.98 2 3 2 C3 2.99 3 3.98 3 5 C2.01 5 1.02 5 0 5 C0 6.32 0 7.64 0 9 C0.99 9 1.98 9 3 9 C2.67 9.99 2.34 10.98 2 12 C-3.75 12.125 -3.75 12.125 -6 11 C-6 11.66 -6 12.32 -6 13 C-10.29 13 -14.58 13 -19 13 C-19 11.35 -19 9.7 -19 8 C-20.65 8 -22.3 8 -24 8 C-25 6 -25 6 -26 3 C-25.09636719 3.01160156 -24.19273438 3.02320313 -23.26171875 3.03515625 C-21.49248047 3.04869141 -21.49248047 3.04869141 -19.6875 3.0625 C-18.51574219 3.07410156 -17.34398438 3.08570313 -16.13671875 3.09765625 C-12.96940805 3.14899898 -12.96940805 3.14899898 -10 2 C-9.154375 1.835 -8.30875 1.67 -7.4375 1.5 C-0.125 0 -0.125 0 0 0 Z M-14 6 C-14 7.65 -14 9.3 -14 11 C-13.01 11.495 -13.01 11.495 -12 12 C-12 10.02 -12 8.04 -12 6 C-12.66 6 -13.32 6 -14 6 Z " fill="#0B0B12" transform="translate(100,50)"/>
<path d="M0 0 C0.66 0.185625 1.32 0.37125 2 0.5625 C4.81971331 1.17931229 7.20249803 0.57221631 10 0 C9.67 3.63 9.34 7.26 9 11 C6.525 10.505 6.525 10.505 4 10 C4 8.02 4 6.04 4 4 C3.731875 4.78375 3.46375 5.5675 3.1875 6.375 C2 9 2 9 -1 11 C-7.45283019 10.54716981 -7.45283019 10.54716981 -10 8 C-9.8125 5 -9.8125 5 -9 2 C-5.51064529 -0.32623648 -4.09517402 -0.25072494 0 0 Z M-5 3 C-4.67 4.65 -4.34 6.3 -4 8 C-3.34 8 -2.68 8 -2 8 C-2.33 6.35 -2.66 4.7 -3 3 C-3.66 3 -4.32 3 -5 3 Z " fill="#161823" transform="translate(67,34)"/>
<path d="M0 0 C0 1.32 0 2.64 0 4 C1.65 3.67 3.3 3.34 5 3 C7.02350324 6.03525486 7.32124018 7.19426202 7.625 10.6875 C7.69976562 11.49574219 7.77453125 12.30398437 7.8515625 13.13671875 C7.92503906 14.05904297 7.92503906 14.05904297 8 15 C5.69 15 3.38 15 1 15 C1.33 12.36 1.66 9.72 2 7 C1.01 7 0.02 7 -1 7 C-0.67 9.64 -0.34 12.28 0 15 C-2.31 15 -4.62 15 -7 15 C-7 10.05 -7 5.1 -7 0 C-3.86650268 -1.04449911 -3.01031744 -0.93423645 0 0 Z " fill="#262631" transform="translate(49,31)"/>
<path d="M0 0 C1.98 0 3.96 0 6 0 C6 3.63 6 7.26 6 11 C6.66 11 7.32 11 8 11 C7.67 9.02 7.34 7.04 7 5 C10.40562852 4.22157062 13.50765756 3.90021879 17 4 C16.67 5.32 16.34 6.64 16 8 C15.01 8 14.02 8 13 8 C13 9.98 13 11.96 13 14 C9.61725734 15.12758089 8.23221777 14.81750262 4.8125 14.0625 C3.91144531 13.86785156 3.01039062 13.67320313 2.08203125 13.47265625 C1.39496094 13.31667969 0.70789062 13.16070312 0 13 C0.33 10.69 0.66 8.38 1 6 C0.34 5.67 -0.32 5.34 -1 5 C-0.34 4.34 0.32 3.68 1 3 C0.67 2.01 0.34 1.02 0 0 Z " fill="#191B29" transform="translate(36,49)"/>
<path d="M0 0 C2.31 0 4.62 0 7 0 C8.09969293 3.29907878 7.90192008 4.70906261 7.25 8.0625 C7.09015625 8.94035156 6.9303125 9.81820312 6.765625 10.72265625 C6 13 6 13 3 15 C-1.07490752 15.33957563 -2.53001271 15.31332486 -6 13 C-6 11.68 -6 10.36 -6 9 C-5.01 8.67 -4.02 8.34 -3 8 C-2.34 8.33 -1.68 8.66 -1 9 C-1 9.99 -1 10.98 -1 12 C-0.34 12 0.32 12 1 12 C1 9.03 1 6.06 1 3 C0.34 3 -0.32 3 -1 3 C-0.67 2.01 -0.34 1.02 0 0 Z " fill="#1A171D" transform="translate(33,30)"/>
<path d="M0 0 C1.4540625 0.0309375 1.4540625 0.0309375 2.9375 0.0625 C3.2675 1.3825 3.5975 2.7025 3.9375 4.0625 C4.2675 2.7425 4.5975 1.4225 4.9375 0.0625 C6.2575 0.0625 7.5775 0.0625 8.9375 0.0625 C7.28042168 5.71163063 5.45987988 10.32550637 1.9375 15.0625 C-0.5 14.6875 -0.5 14.6875 -3.0625 14.0625 C-3.3925 13.4025 -3.7225 12.7425 -4.0625 12.0625 C-3.7325 11.4025 -3.4025 10.7425 -3.0625 10.0625 C-2.0725 10.3925 -1.0825 10.7225 -0.0625 11.0625 C-1.1719072 7.57579166 -2.32587666 4.28765763 -4.0625 1.0625 C-3.0625 0.0625 -3.0625 0.0625 0 0 Z " fill="#0F111C" transform="translate(104.0625,33.9375)"/>
<path d="M0 0 C1.65 0.33 3.3 0.66 5 1 C4.67 1.99 4.34 2.98 4 4 C5.32 4.33 6.64 4.66 8 5 C7.67 6.65 7.34 8.3 7 10 C2.545 7.525 2.545 7.525 -2 5 C-4.64 9.95 -7.28 14.9 -10 20 C-10.99 20 -11.98 20 -13 20 C-12.27372424 16.0781109 -10.52602691 12.82814139 -8.6875 9.3125 C-7.79611328 7.57419922 -7.79611328 7.57419922 -6.88671875 5.80078125 C-5 3 -5 3 -2.83203125 2.23046875 C-1.92517578 2.11638672 -1.92517578 2.11638672 -1 2 C-0.67 1.34 -0.34 0.68 0 0 Z " fill="#242E2B" transform="translate(128,46)"/>
<path d="M0 0 C0 0.66 0 1.32 0 2 C0.99 2 1.98 2 3 2 C3 2.99 3 3.98 3 5 C2.01 5 1.02 5 0 5 C0 6.32 0 7.64 0 9 C0.99 9 1.98 9 3 9 C2.67 9.99 2.34 10.98 2 12 C-0.875 12.125 -0.875 12.125 -4 12 C-6.35953094 9.64046906 -6.49141413 8.22104383 -7 5 C-8.98 5 -10.96 5 -13 5 C-12.67 4.01 -12.34 3.02 -12 2 C-10.88625 1.855625 -9.7725 1.71125 -8.625 1.5625 C-5.35319753 1.05480651 -3.2613964 0 0 0 Z " fill="#0E1017" transform="translate(100,50)"/>
<path d="M0 0 C0.66 0 1.32 0 2 0 C2 0.66 2 1.32 2 2 C3.32 1.67 4.64 1.34 6 1 C6.33 2.32 6.66 3.64 7 5 C7.66 4.67 8.32 4.34 9 4 C9.65213292 1.97536745 9.65213292 1.97536745 10 0 C10.99 0 11.98 0 13 0 C12.125 5.875 12.125 5.875 11 7 C9.33382885 7.04063832 7.66611905 7.042721 6 7 C6.33 8.65 6.66 10.3 7 12 C4.36 12 1.72 12 -1 12 C-1 11.34 -1 10.68 -1 10 C-0.34 10 0.32 10 1 10 C0.67 6.7 0.34 3.4 0 0 Z " fill="#100A0C" transform="translate(23,50)"/>
<path d="M0 0 C1 1 1 1 1.09765625 2.84765625 C1.04882812 5.92382812 1.04882812 5.92382812 1 9 C1.66 9.33 2.32 9.66 3 10 C2 11 2 11 -1.16015625 11.09765625 C-3.09181641 11.08025391 -3.09181641 11.08025391 -5.0625 11.0625 C-6.35285156 11.05347656 -7.64320312 11.04445313 -8.97265625 11.03515625 C-9.97167969 11.02355469 -10.97070312 11.01195312 -12 11 C-11.67 10.34 -11.34 9.68 -11 9 C-9.02 9.495 -9.02 9.495 -7 10 C-7 6.7 -7 3.4 -7 0 C-4.31633121 -1.3418344 -2.84719317 -0.73004953 0 0 Z M-6 3 C-6 4.98 -6 6.96 -6 9 C-5.34 9 -4.68 9 -4 9 C-4 7.02 -4 5.04 -4 3 C-4.66 3 -5.32 3 -6 3 Z " fill="#0C0C11" transform="translate(83,35)"/>
<path d="M0 0 C3.5 0.25 3.5 0.25 5.5 2.25 C5.8125 4.75 5.8125 4.75 5.5 7.25 C2.03076119 9.56282587 0.57794425 9.67478586 -3.5 9.25 C-5.4375 8 -5.4375 8 -6.5 6.25 C-6.09230563 1.76536188 -4.51551931 0.32253709 0 0 Z M-1.5 2.25 C-1.17 3.9 -0.84 5.55 -0.5 7.25 C0.16 6.59 0.82 5.93 1.5 5.25 C1.17 4.26 0.84 3.27 0.5 2.25 C-0.16 2.25 -0.82 2.25 -1.5 2.25 Z " fill="#04050B" transform="translate(109.5,52.75)"/>
<path d="M0 0 C2.5654594 2.5654594 2.54046087 4.47686668 3 8 C3.66 6.68 4.32 5.36 5 4 C5.99 4 6.98 4 8 4 C8.33 3.34 8.66 2.68 9 2 C9.33 4.64 9.66 7.28 10 10 C5.71 10 1.42 10 -3 10 C-3 8.02 -3 6.04 -3 4 C-2.34 4 -1.68 4 -1 4 C-0.67 2.68 -0.34 1.36 0 0 Z " fill="#0A0A10" transform="translate(53,53)"/>
<path d="M0 0 C1.23556641 0.01740234 1.23556641 0.01740234 2.49609375 0.03515625 C3.32238281 0.04417969 4.14867187 0.05320313 5 0.0625 C5.63808594 0.07410156 6.27617188 0.08570313 6.93359375 0.09765625 C6.60359375 1.41765625 6.27359375 2.73765625 5.93359375 4.09765625 C4.94359375 4.09765625 3.95359375 4.09765625 2.93359375 4.09765625 C2.93359375 6.07765625 2.93359375 8.05765625 2.93359375 10.09765625 C-0.06640625 11.09765625 -0.06640625 11.09765625 -3.06640625 10.09765625 C-3.09329841 8.61858733 -3.11275246 7.13938142 -3.12890625 5.66015625 C-3.14050781 4.83644531 -3.15210938 4.01273438 -3.1640625 3.1640625 C-3.03158405 0.36081842 -2.80324408 0.13247845 0 0 Z " fill="#1E1E29" transform="translate(46.06640625,52.90234375)"/>
<path d="M0 0 C0.66 0 1.32 0 2 0 C2 0.99 2 1.98 2 3 C2.66 3 3.32 3 4 3 C4 3.66 4 4.32 4 5 C5.65 5.33 7.3 5.66 9 6 C8.01 7.485 8.01 7.485 7 9 C4.3984375 9.29296875 4.3984375 9.29296875 1.375 9.1875 C-0.12933594 9.14689453 -0.12933594 9.14689453 -1.6640625 9.10546875 C-2.43492188 9.07066406 -3.20578125 9.03585938 -4 9 C-4 7.68 -4 6.36 -4 5 C-3.67 5.66 -3.34 6.32 -3 7 C-2.690625 6.030625 -2.38125 5.06125 -2.0625 4.0625 C-1 1 -1 1 0 0 Z " fill="#0B090B" transform="translate(72,53)"/>
<path d="M0 0 C0.25 2.3125 0.25 2.3125 0 5 C-1.5625 6.875 -1.5625 6.875 -4 8 C-7.625 7.9375 -7.625 7.9375 -11 7 C-12.4375 4.9375 -12.4375 4.9375 -13 3 C-10 2 -10 2 -7 3 C-7 3.66 -7 4.32 -7 5 C-6.34 5 -5.68 5 -5 5 C-5 3.68 -5 2.36 -5 1 C-3 0 -3 0 0 0 Z " fill="#06070F" transform="translate(70,37)"/>
<path d="M0 0 C0 3 0 3 -1 6 C-5.455 6.495 -5.455 6.495 -10 7 C-10 5.35 -10 3.7 -10 2 C-8.71211992 1.46987262 -7.41953322 0.9511671 -6.125 0.4375 C-5.40570313 0.14746094 -4.68640625 -0.14257812 -3.9453125 -0.44140625 C-2 -1 -2 -1 0 0 Z " fill="#1C2622" transform="translate(135,61)"/>
<path d="M0 0 C-0.6875 2.4375 -0.6875 2.4375 -2 5 C-4.625 5.8125 -4.625 5.8125 -7 6 C-7 5.34 -7 4.68 -7 4 C-8.65 4.33 -10.3 4.66 -12 5 C-12.33 3.68 -12.66 2.36 -13 1 C-4.57142857 -1.42857143 -4.57142857 -1.42857143 0 0 Z " fill="#1B211E" transform="translate(25,30)"/>
<path d="M0 0 C0.99 0.33 1.98 0.66 3 1 C3.33 3.97 3.66 6.94 4 10 C1.69 10 -0.62 10 -3 10 C-2.25 2.25 -2.25 2.25 0 0 Z " fill="#020309" transform="translate(53,36)"/>
<path d="M0 0 C0.33 0.66 0.66 1.32 1 2 C-0.07674702 4.28258633 -1.19546116 6.4356434 -2.4375 8.625 C-2.77587891 9.23601563 -3.11425781 9.84703125 -3.46289062 10.4765625 C-4.30146192 11.988353 -5.14982577 13.49470399 -6 15 C-6.99 15 -7.98 15 -9 15 C-8.35550393 11.98782888 -7.34977818 9.48344164 -5.9375 6.75 C-5.57527344 6.04359375 -5.21304688 5.3371875 -4.83984375 4.609375 C-4.56269531 4.07828125 -4.28554687 3.5471875 -4 3 C-3.34 3 -2.68 3 -2 3 C-1.34 2.01 -0.68 1.02 0 0 Z " fill="#0A090C" transform="translate(124,51)"/>
<path d="M0 0 C1.32 0 2.64 0 4 0 C4.33 2.97 4.66 5.94 5 9 C2.69 9 0.38 9 -2 9 C-2 8.34 -2 7.68 -2 7 C-1.34 7 -0.68 7 0 7 C0 4.69 0 2.38 0 0 Z " fill="#06060D" transform="translate(95,37)"/>
<path d="M0 0 C3.0831351 1.19899698 6.06279492 2.47700477 9 4 C8.42655063 6.86724686 8.1385485 7.8614515 6 10 C4.4375 8.75 4.4375 8.75 3 7 C3.3125 4.8125 3.3125 4.8125 4 3 C2.35 3 0.7 3 -1 3 C-0.67 2.01 -0.34 1.02 0 0 Z " fill="#0D0D0C" transform="translate(132,48)"/>
<path d="M0 0 C0 0.99 0 1.98 0 3 C1.65 2.67 3.3 2.34 5 2 C5 2.66 5 3.32 5 4 C1.535 5.485 1.535 5.485 -2 7 C-2 7.66 -2 8.32 -2 9 C-2.99 8.67 -3.98 8.34 -5 8 C-4.67 7.01 -4.34 6.02 -4 5 C-3.90754997 3.53774984 -3.90754997 3.53774984 -6 1 C-4 0 -4 0 0 0 Z " fill="#090A08" transform="translate(13,32)"/>
<path d="M0 0 C-0.33 1.65 -0.66 3.3 -1 5 C-1.66 5 -2.32 5 -3 5 C-3 4.01 -3 3.02 -3 2 C-5.05990478 3.29467677 -5.05990478 3.29467677 -7 5 C-7 5.99 -7 6.98 -7 8 C-7.66 8 -8.32 8 -9 8 C-9.6875 5.6875 -9.6875 5.6875 -10 3 C-7.7638263 -1.05306482 -4.16821004 -0.23593642 0 0 Z " fill="#141727" transform="translate(113,53)"/>
<path d="M0 0 C3.3 0 6.6 0 10 0 C8 4 8 4 7 5 C5.33382885 5.04063832 3.66611905 5.042721 2 5 C1 3 1 3 0 0 Z " fill="#272427" transform="translate(74,53)"/>
<path d="M0 0 C-0.66 2.31 -1.32 4.62 -2 7 C-2.66 6.67 -3.32 6.34 -4 6 C-3.67 4.68 -3.34 3.36 -3 2 C-4.98 2.33 -6.96 2.66 -9 3 C-9 2.34 -9 1.68 -9 1 C-9.99 1.33 -10.98 1.66 -12 2 C-12.33 1.34 -12.66 0.68 -13 0 C-8.34462607 -0.83796731 -4.62921525 -1.0161692 0 0 Z " fill="#2C2B37" transform="translate(34,49)"/>
<path d="M0 0 C0.33 2.31 0.66 4.62 1 7 C-1.31 7 -3.62 7 -6 7 C-5.75 4.625 -5.75 4.625 -5 2 C-1.95238095 0 -1.95238095 0 0 0 Z " fill="#080810" transform="translate(42,55)"/>
<path d="M0 0 C0.66 0.99 1.32 1.98 2 3 C2.33 3 2.66 3 3 3 C3 4.98 3 6.96 3 9 C1.35 8.67 -0.3 8.34 -2 8 C-2 5.69 -2 3.38 -2 1 C-1.34 0.67 -0.68 0.34 0 0 Z " fill="#181924" transform="translate(73,36)"/>
<path d="M0 0 C0.66 0 1.32 0 2 0 C2 0.99 2 1.98 2 3 C2.66 3 3.32 3 4 3 C3.67 3.99 3.34 4.98 3 6 C0.9375 6.6875 0.9375 6.6875 -1 7 C-1.625 4.625 -1.625 4.625 -2 2 C-1.34 1.34 -0.68 0.68 0 0 Z " fill="#0D0F15" transform="translate(72,53)"/>
<path d="M0 0 C0.66 0 1.32 0 2 0 C2 0.66 2 1.32 2 2 C3.32 1.67 4.64 1.34 6 1 C5.67 2.98 5.34 4.96 5 7 C4.01 7.33 3.02 7.66 2 8 C0 1.125 0 1.125 0 0 Z " fill="#1D1419" transform="translate(23,50)"/>
<path d="M0 0 C0.99 0 1.98 0 3 0 C2.125 5.875 2.125 5.875 1 7 C-0.99958364 7.04080783 -3.00045254 7.04254356 -5 7 C-5 6.34 -5 5.68 -5 5 C-3.68 4.67 -2.36 4.34 -1 4 C-0.67 2.68 -0.34 1.36 0 0 Z " fill="#020105" transform="translate(33,50)"/>
<path d="M0 0 C0.99 0.33 1.98 0.66 3 1 C3 1.99 3 2.98 3 4 C3.66 4.33 4.32 4.66 5 5 C3.02 5.99 3.02 5.99 1 7 C0.01 6.34 -0.98 5.68 -2 5 C-2 3.68 -2 2.36 -2 1 C-1.34 0.67 -0.68 0.34 0 0 Z " fill="#211E25" transform="translate(29,38)"/>
<path d="M0 0 C1.65 0.33 3.3 0.66 5 1 C5 1.99 5 2.98 5 4 C4.01 3.67 3.02 3.34 2 3 C2 5.31 2 7.62 2 10 C1.67 10 1.34 10 1 10 C1 8.02 1 6.04 1 4 C-0.32 3.34 -1.64 2.68 -3 2 C-2.01 2 -1.02 2 0 2 C0 1.34 0 0.68 0 0 Z " fill="#1D181D" transform="translate(93,34)"/>
<path d="M0 0 C-0.66 1.65 -1.32 3.3 -2 5 C-2.99 4.67 -3.98 4.34 -5 4 C-5 3.34 -5 2.68 -5 2 C-5.66 2 -6.32 2 -7 2 C-7 1.34 -7 0.68 -7 0 C-4.3333581 -1.33332095 -2.83319697 -0.67102033 0 0 Z " fill="#101F17" transform="translate(25,30)"/>
<path d="M0 0 C3.465 1.98 3.465 1.98 7 4 C6.67 5.65 6.34 7.3 6 9 C4.68 8.67 3.36 8.34 2 8 C2.66 7.34 3.32 6.68 4 6 C3.67 5.01 3.34 4.02 3 3 C2.01 2.67 1.02 2.34 0 2 C0 1.34 0 0.68 0 0 Z " fill="#060805" transform="translate(15,42)"/>
<path d="M0 0 C0.99 0.33 1.98 0.66 3 1 C2.67 3.64 2.34 6.28 2 9 C0.5 7.625 0.5 7.625 -1 6 C-1 5.34 -1 4.68 -1 4 C-1.66 3.34 -2.32 2.68 -3 2 C-2.01 1.34 -1.02 0.68 0 0 Z " fill="#05050B" transform="translate(38,30)"/>
<path d="M0 0 C0.99 0.33 1.98 0.66 3 1 C2.67 2.65 2.34 4.3 2 6 C0.68 5.67 -0.64 5.34 -2 5 C-1.125 1.125 -1.125 1.125 0 0 Z " fill="#0F1018" transform="translate(116,39)"/>
<path d="M0 0 C1.65 0 3.3 0 5 0 C5.66 1.32 6.32 2.64 7 4 C4.69 4 2.38 4 0 4 C0 2.68 0 1.36 0 0 Z " fill="#1D1D24" transform="translate(81,59)"/>
<path d="M0 0 C0.33 0.66 0.66 1.32 1 2 C1.99 2 2.98 2 4 2 C4 2.99 4 3.98 4 5 C3.01 5 2.02 5 1 5 C1 5.99 1 6.98 1 8 C0.34 8 -0.32 8 -1 8 C-0.67 5.36 -0.34 2.72 0 0 Z " fill="#362A27" transform="translate(99,50)"/>
<path d="M0 0 C1.5 1.375 1.5 1.375 3 3 C3 3.66 3 4.32 3 5 C0.69 5 -1.62 5 -4 5 C-3 2 -3 2 0 0 Z " fill="#06060E" transform="translate(46,41)"/>
<path d="M0 0 C-0.33 1.32 -0.66 2.64 -1 4 C-1.99 4 -2.98 4 -4 4 C-4 3.34 -4 2.68 -4 2 C-5.32 1.67 -6.64 1.34 -8 1 C-4.93251126 -0.86240388 -3.40254489 -1.2151946 0 0 Z " fill="#31313B" transform="translate(77,35)"/>
<path d="M0 0 C1.98 0 3.96 0 6 0 C6 1.98 6 3.96 6 6 C3.96166576 4.7260411 1.96147874 3.38938077 0 2 C0 1.34 0 0.68 0 0 Z " fill="#1B1E2A" transform="translate(63,49)"/>
<path d="M0 0 C3 1 3 1 4.1875 3.0625 C4.455625 3.701875 4.72375 4.34125 5 5 C2.69 4.67 0.38 4.34 -2 4 C-1.34 2.68 -0.68 1.36 0 0 Z " fill="#172B21" transform="translate(15,44)"/>
<path d="M0 0 C1.32 0.66 2.64 1.32 4 2 C4 2.99 4 3.98 4 5 C2.35 5.33 0.7 5.66 -1 6 C-1 2 -1 2 0 0 Z " fill="#0A0B09" transform="translate(135,60)"/>
<path d="M0 0 C0.61875 0.639375 1.2375 1.27875 1.875 1.9375 C3.82597612 4.03883584 3.82597612 4.03883584 6 5 C6 5.66 6 6.32 6 7 C4.02 7 2.04 7 0 7 C0 4.69 0 2.38 0 0 Z " fill="#110F12" transform="translate(88,56)"/>
<path d="M0 0 C0.66 0 1.32 0 2 0 C2.66 1.65 3.32 3.3 4 5 C2 5 0 5 -2 5 C-1.34 3.35 -0.68 1.7 0 0 Z " fill="#2B2E3E" transform="translate(59,35)"/>
<path d="M0 0 C1.32 0.33 2.64 0.66 4 1 C3.67 2.98 3.34 4.96 3 7 C2.01 6.67 1.02 6.34 0 6 C0 4.02 0 2.04 0 0 Z " fill="#111626" transform="translate(45,30)"/>
<path d="M0 0 C0.99 0 1.98 0 3 0 C3.66 1.98 4.32 3.96 5 6 C3.68 6 2.36 6 1 6 C0.67 4.02 0.34 2.04 0 0 Z " fill="#0A0B19" transform="translate(105,56)"/>
<path d="M0 0 C1.32 0.66 2.64 1.32 4 2 C2.71034824 3.37562854 1.37310707 4.70766393 0 6 C-0.66 6 -1.32 6 -2 6 C-1.49396008 3.83125748 -1.00016187 2.00032373 0 0 Z " fill="#212323" transform="translate(141,53)"/>
<path d="M0 0 C0.33 0 0.66 0 1 0 C1.33 2.97 1.66 5.94 2 9 C0.68 8.67 -0.64 8.34 -2 8 C-1.125 2.25 -1.125 2.25 0 0 Z " fill="#0F0E12" transform="translate(55,37)"/>
<path d="M0 0 C1.32 0.66 2.64 1.32 4 2 C4 2.99 4 3.98 4 5 C1.69 4.67 -0.62 4.34 -3 4 C-2.67 3.34 -2.34 2.68 -2 2 C-1.34 2 -0.68 2 0 2 C0 1.34 0 0.68 0 0 Z " fill="#1D201F" transform="translate(11,39)"/>
<path d="M0 0 C1.485 0.99 1.485 0.99 3 2 C3 3.32 3 4.64 3 6 C1.68 6 0.36 6 -1 6 C-1.042721 4.33388095 -1.04063832 2.66617115 -1 1 C-0.67 0.67 -0.34 0.34 0 0 Z " fill="#040703" transform="translate(126,62)"/>
<path d="M0 0 C0.66 0.66 1.32 1.32 2 2 C1.625 4.625 1.625 4.625 1 7 C-0.32 6.01 -1.64 5.02 -3 4 C-2.34 4 -1.68 4 -1 4 C-0.67 2.68 -0.34 1.36 0 0 Z " fill="#030410" transform="translate(53,53)"/>
<path d="M0 0 C0.33 0 0.66 0 1 0 C1.33 2.97 1.66 5.94 2 9 C0.35 9 -1.3 9 -3 9 C-2.690625 8.443125 -2.38125 7.88625 -2.0625 7.3125 C-0.94238179 4.87459567 -0.43962636 2.63775814 0 0 Z " fill="#010105" transform="translate(98,37)"/>
<path d="M0 0 C0 0.99 0 1.98 0 3 C-1.32 3.33 -2.64 3.66 -4 4 C-4.66 2.68 -5.32 1.36 -6 0 C-3.50907189 -1.24546405 -2.58919267 -0.7767578 0 0 Z " fill="#12131E" transform="translate(63,40)"/>
<path d="M0 0 C2.31 0 4.62 0 7 0 C7.33 0.66 7.66 1.32 8 2 C4.94152152 2.54372951 2.11227195 3 -1 3 C-0.67 2.01 -0.34 1.02 0 0 Z " fill="#33343B" transform="translate(88,52)"/>
<path d="M0 0 C2.0625 0.4375 2.0625 0.4375 4 1 C4 2.32 4 3.64 4 5 C3.01 5 2.02 5 1 5 C0.34 3.68 -0.32 2.36 -1 1 C-0.67 0.67 -0.34 0.34 0 0 Z " fill="#2B2F40" transform="translate(101,34)"/>
</svg>
